<svg xmlns="http://www.w3.org/2000/svg" xmlns:xlink="http://www.w3.org/1999/xlink" width="1440" height="700" viewBox="0 0 1440 700">
  <defs>
    <clipPath id="clip-path">
      <rect id="Mask" width="1440" height="700" fill="#014e56"/>
    </clipPath>
  </defs>
  <g id="Group_7" data-name="Group 7" clip-path="url(#clip-path)">
    <g id="Group_8" data-name="Group 8" transform="translate(100 250) rotate(180)">
      <rect id="Rectangle" width="100" height="100" transform="translate(0 -200)" fill="#79c8c7"/>
      <path id="Combined_Shape_Copy" data-name="Combined Shape Copy" d="M-100,200a99.374,99.374,0,0,0,38.925-7.858,100.007,100.007,0,0,0,16.986-9.22,100.717,100.717,0,0,0,14.8-12.211,100.717,100.717,0,0,0,12.211-14.8,100.007,100.007,0,0,0,9.22-16.986A99.374,99.374,0,0,0,0,100,99.374,99.374,0,0,0-7.858,61.075a100.007,100.007,0,0,0-9.22-16.986,100.717,100.717,0,0,0-12.211-14.8,100.717,100.717,0,0,0-14.8-12.211,100.007,100.007,0,0,0-16.986-9.22A99.374,99.374,0,0,0-100,0a99.374,99.374,0,0,0-38.925,7.858,100.007,100.007,0,0,0-16.986,9.22,100.717,100.717,0,0,0-14.8,12.211,100.717,100.717,0,0,0-12.211,14.8,100.007,100.007,0,0,0-9.22,16.986A99.374,99.374,0,0,0-200,100a99.374,99.374,0,0,0,7.858,38.925,100.007,100.007,0,0,0,9.22,16.986,100.717,100.717,0,0,0,12.211,14.8,100.717,100.717,0,0,0,14.8,12.211,100.007,100.007,0,0,0,16.986,9.22A99.374,99.374,0,0,0-100,200Zm0-133a33.038,33.038,0,0,1,33,33,33.038,33.038,0,0,1-33,33,33.038,33.038,0,0,1-33-33A33.038,33.038,0,0,1-100,67Z" transform="rotate(-180)" fill="#012f34"/>
    </g>
    <g id="Group_7-2" data-name="Group 7" transform="translate(917 600)">
      <g id="Group_4" data-name="Group 4">
        <circle id="Oval" cx="100" cy="100" r="100" fill="#2c6269"/>
        <path id="Combined_Shape" data-name="Combined Shape" d="M100,200a99.532,99.532,0,0,1-55.911-17.078,100.292,100.292,0,0,1-36.23-44,99.868,99.868,0,0,1,9.22-94.835,100.292,100.292,0,0,1,44-36.23,99.868,99.868,0,0,1,94.835,9.22,100.292,100.292,0,0,1,36.23,44,99.868,99.868,0,0,1-9.22,94.835,100.292,100.292,0,0,1-44,36.23A99.374,99.374,0,0,1,100,200Zm0-133a33,33,0,1,0,33,33A33.038,33.038,0,0,0,100,67Z" transform="translate(158)" fill="#012f34"/>
        <rect id="Rectangle-2" data-name="Rectangle" width="43" height="43" transform="translate(358 43) rotate(-180)" fill="#79c8c7"/>
        <path id="Combined_Shape_Copy-2" data-name="Combined Shape Copy" d="M100,200a99.532,99.532,0,0,1-55.911-17.078,100.292,100.292,0,0,1-36.23-44,99.868,99.868,0,0,1,9.22-94.835,100.292,100.292,0,0,1,44-36.23,99.868,99.868,0,0,1,94.835,9.22,100.292,100.292,0,0,1,36.23,44,99.868,99.868,0,0,1-9.22,94.835,100.292,100.292,0,0,1-44,36.23A99.374,99.374,0,0,1,100,200Zm0-133a33,33,0,1,0,33,33A33.038,33.038,0,0,0,100,67Z" transform="translate(133.514)" fill="#f67e7e"/>
      </g>
      <path id="Combined_Shape-2" data-name="Combined Shape" d="M0,44V40H100v4Zm0-8V32H100v4Zm0-8V24H100v4Zm0-8V16H100v4Zm0-8V8H100v4ZM0,4V0H100V4Z" fill="#79c8c7"/>
    </g>
  </g>
</svg>
