<svg xmlns="http://www.w3.org/2000/svg" width="159.947" height="40" viewBox="0 0 159.947 40"><defs><style>.a{fill:#fff;}</style></defs><path class="a" d="M38.072,40l5.015-12.656L35.042,8.192h6.606l4.6,12.1,4.644-12.1H57.5L44.635,40H38.072ZM85.831,29.978h-.066A10.7,10.7,0,0,1,78,26.875a11.043,11.043,0,0,1-3.118-8.08A10.818,10.818,0,0,1,78,10.781a10.506,10.506,0,0,1,7.654-3.058h.064a10.3,10.3,0,0,1,7.653,3.126,11.257,11.257,0,0,1,3.073,8.124c0,.033-.034.8-.087,1.965H81.077a3.382,3.382,0,0,0,1.7,2.633,6.476,6.476,0,0,0,3.445.938A5.459,5.459,0,0,0,90.779,22.5l4.513,3.147A9.024,9.024,0,0,1,91.484,28.9,13.561,13.561,0,0,1,85.831,29.978ZM85.694,13.3a4.669,4.669,0,0,0-2.785.939,4.231,4.231,0,0,0-1.744,2.723h9.026a3.741,3.741,0,0,0-1.5-2.678A5.012,5.012,0,0,0,85.83,13.3Zm24.194,16.634h0l-.179,0a10.377,10.377,0,0,1-7.456-3.081,10.733,10.733,0,0,1-3.162-8.013A10.889,10.889,0,0,1,109.709,7.723a8.745,8.745,0,0,1,3.4.737,6,6,0,0,1,2.682,2.1V8.192h6.148V29.531h-6.148V27.1a6.132,6.132,0,0,1-2.7,2.12A8.137,8.137,0,0,1,109.888,29.936Zm.911-16.163a5.642,5.642,0,0,0-3.728,1.451,4.81,4.81,0,0,0-1.571,3.638,4.7,4.7,0,0,0,1.57,3.616,5.165,5.165,0,0,0,3.641,1.428,5.056,5.056,0,0,0,3.6-1.406,4.812,4.812,0,0,0,1.483-3.639,4.972,4.972,0,0,0-4.993-5.089Zm35.979,15.759h-6.214V18.014A4.856,4.856,0,0,0,139.54,15a3.162,3.162,0,0,0-2.485-1.094,3.366,3.366,0,0,0-2.529,1.049,4.631,4.631,0,0,0-1,3.281V29.531h-6.214V8.192h6.214v3.1A6.27,6.27,0,0,1,135.7,8.683a6.276,6.276,0,0,1,3.27-.915,8.427,8.427,0,0,1,4.149.938,6.06,6.06,0,0,1,2.546,2.813,7.009,7.009,0,0,1,6.214-3.8,7.342,7.342,0,0,1,5.995,2.523c1.375,1.673,2.072,4.084,2.072,7.165V29.53H153.8V18.148a4.763,4.763,0,0,0-.937-3.1,3.523,3.523,0,0,0-5.124-.067,4.786,4.786,0,0,0-.959,3.259V29.531Zm-127.309,0H13.256V18.014A4.856,4.856,0,0,0,12.231,15a3.163,3.163,0,0,0-2.486-1.094,3.366,3.366,0,0,0-2.529,1.049,4.635,4.635,0,0,0-1,3.281V29.531H0V8.192H6.214v3.1A6.262,6.262,0,0,1,8.394,8.683a6.275,6.275,0,0,1,3.27-.915,8.425,8.425,0,0,1,4.148.938,6.06,6.06,0,0,1,2.545,2.813,7.011,7.011,0,0,1,6.214-3.8,7.343,7.343,0,0,1,6,2.523c1.375,1.674,2.072,4.085,2.072,7.165V29.53H26.49V18.148a4.759,4.759,0,0,0-.938-3.1,3.244,3.244,0,0,0-2.572-1.139,3.268,3.268,0,0,0-2.551,1.072,4.786,4.786,0,0,0-.959,3.259V29.531Zm48.847,0H62.148V13.215H58.354V8.192h3.793V0h6.169V8.192H72.7v5.023H68.317V29.53Z" transform="translate(0 0)"/></svg>